<?xml version="1.0" encoding="utf-8"?>
<!DOCTYPE svg [
	<!ENTITY ns_extend "http://ns.adobe.com/Extensibility/1.0/">
	<!ENTITY ns_ai "http://ns.adobe.com/AdobeIllustrator/10.0/">
	<!ENTITY ns_graphs "http://ns.adobe.com/Graphs/1.0/">
	<!ENTITY ns_vars "http://ns.adobe.com/Variables/1.0/">
	<!ENTITY ns_imrep "http://ns.adobe.com/ImageReplacement/1.0/">
	<!ENTITY ns_sfw "http://ns.adobe.com/SaveForWeb/1.0/">
	<!ENTITY ns_custom "http://ns.adobe.com/GenericCustomNamespace/1.0/">
	<!ENTITY ns_adobe_xpath "http://ns.adobe.com/XPath/1.0/">
]>
<svg version="1.1" id="svg557" xmlns:x="&ns_extend;" xmlns:i="&ns_ai;" xmlns:graph="&ns_graphs;"
	 xmlns="http://www.w3.org/2000/svg" xmlns:xlink="http://www.w3.org/1999/xlink" x="0px" y="0px" width="744.094px"
	 height="496.063px" viewBox="0 0 744.094 496.063" enable-background="new 0 0 744.094 496.063" xml:space="preserve">
<switch>
	<g i:extraneous="self">
		<path id="path3165" fill="#666666" stroke="#231F20" d="M598.703,159.133c-9.552-13.625-26.322-19.325-40.83-14.648
			c-0.095-4.448-1.367-8.961-3.952-13.056c-7.316-11.588-22.258-15.37-33.361-8.423s-14.186,21.984-6.869,33.572l0.095,0.172
			c0.316,0.494,0.668,0.958,1.011,1.422c-1.154,0.595-2.295,1.283-3.399,2.049L200.098,376.233
			c-11.598-16.115-33.192-20.794-48.839-10.401c-15.987,10.615-19.721,32.954-8.339,49.888c9.74,14.491,27.405,20.341,42.318,15.072
			c0.218,4.446,1.609,8.929,4.31,12.952c7.637,11.378,22.699,14.721,33.605,7.467c10.905-7.255,13.551-22.367,5.915-33.746
			l-0.112-0.16c-0.953-1.397-2.017-2.667-3.171-3.814L537.196,197.4c0.849-0.59,1.657-1.219,2.422-1.873
			c0.375,0.678,0.75,1.364,1.169,2.028l0.158,0.226c10.973,17.086,32.893,22.707,49.091,12.591
			c16.277-10.165,20.625-32.409,9.72-49.654C599.415,160.179,599.065,159.649,598.703,159.133z"/>
		<path id="rect3149" fill="#666666" stroke="#231F20" d="M396.747,340.065c-13.547,0-24.451,11.598-24.451,25.999v0.98h-2.039v-0.294
			c0-14.4-10.902-26-24.45-26c-13.546,0-24.45,11.6-24.45,26v17.509c0,3.308,0.576,6.467,1.627,9.372
			c2.218,9.816,12.77,17.214,25.547,17.214h41.076c3.287,0,6.426-0.498,9.313-1.393c12.52-1.163,22.273-12.26,22.273-25.879v-17.51
			C421.196,351.663,410.292,340.065,396.747,340.065z"/>
		<path id="path3176" fill="#666666" stroke="#231F20" d="M143.391,159.133c9.554-13.625,26.325-19.325,40.832-14.648
			c0.095-4.448,1.367-8.961,3.952-13.056c7.316-11.588,22.258-15.37,33.362-8.423c11.104,6.947,14.186,21.984,6.869,33.572
			l-0.095,0.172c-0.317,0.494-0.668,0.958-1.011,1.422c1.154,0.595,2.295,1.283,3.399,2.049l311.298,216.012
			c11.598-16.115,33.192-20.794,48.84-10.401c15.986,10.615,19.721,32.954,8.34,49.888c-9.742,14.491-27.406,20.341-42.32,15.072
			c-0.217,4.446-1.608,8.929-4.308,12.952c-7.639,11.378-22.7,14.721-33.605,7.467c-10.906-7.255-13.552-22.367-5.915-33.746
			l0.112-0.16c0.951-1.397,2.015-2.667,3.17-3.814L204.9,197.4c-0.85-0.59-1.658-1.219-2.423-1.873
			c-0.375,0.678-0.75,1.364-1.169,2.028l-0.156,0.226c-10.974,17.086-32.894,22.707-49.093,12.591
			c-16.275-10.165-20.623-32.409-9.718-49.654C142.68,160.179,143.029,159.649,143.391,159.133z"/>
		<path id="path2160" fill="#888888" stroke="#231F20" d="M371.002,35.021c-67.777,0.349-124.152,53.109-127.268,120.622
			c-1.992,43.161,18.272,82.268,50.763,106.544c0.003,0.002-0.003,0.018,0,0.02l1.02,42.723c0,14.401,10.902,25.979,24.45,25.979
			c13.547,0,24.449-11.578,24.449-25.979l-0.49-20.155c0.863,0.188,1.739,0.378,2.608,0.549c-0.03,0.535-0.059,1.065-0.059,1.608
			v17.509c0,14.4,10.922,26,24.469,26c13.547,0,24.45-11.6,24.45-26v-17.509c0-0.438-0.018-0.863-0.039-1.294
			c0.722-0.132,1.441-0.268,2.157-0.412l0.451,19.215c0,14.4,10.903,26,24.449,26c13.547,0,24.449-11.6,24.449-26l-0.96-39.939
			c31.09-21.766,52.053-56.912,53.919-97.349c3.217-69.69-51.531-128.842-122.21-132.014
			C375.401,35.039,373.189,35.009,371.002,35.021z M411.765,156.721c0.506-0.003,1.018-0.005,1.529,0.02
			c16.36,0.799,29.037,15.709,28.292,33.273c-0.74,17.48-14.476,31.036-30.762,30.372h-0.217
			c-16.358-0.799-29.037-15.709-28.292-33.273C383.038,170.097,396.078,156.808,411.765,156.721z M332.828,179.641
			c0.357-0.002,0.718,0.004,1.078,0.02c11.543,0.507,20.486,9.957,19.96,21.097c-0.523,11.087-10.214,19.694-21.705,19.273h-0.157
			c-11.542-0.507-20.485-9.956-19.96-21.097C312.553,188.142,321.76,179.697,332.828,179.641z"/>
	</g>
</switch>
</svg>
