<?xml version="1.0" encoding="UTF-8" standalone="no"?>
<!-- Created with Inkscape (http://www.inkscape.org/) -->

<svg
   xmlns:dc="http://purl.org/dc/elements/1.1/"
   xmlns:cc="http://creativecommons.org/ns#"
   xmlns:rdf="http://www.w3.org/1999/02/22-rdf-syntax-ns#"
   xmlns:svg="http://www.w3.org/2000/svg"
   xmlns="http://www.w3.org/2000/svg"
   xmlns:sodipodi="http://sodipodi.sourceforge.net/DTD/sodipodi-0.dtd"
   xmlns:inkscape="http://www.inkscape.org/namespaces/inkscape"
   version="1.0"
   width="32"
   height="32"
   id="svg1533"
   inkscape:version="0.48.5 r10040"
   sodipodi:docname="music_haut.svg">
  <metadata
     id="metadata10">
    <rdf:RDF>
      <cc:Work
         rdf:about="">
        <dc:format>image/svg+xml</dc:format>
        <dc:type
           rdf:resource="http://purl.org/dc/dcmitype/StillImage" />
      </cc:Work>
    </rdf:RDF>
  </metadata>
  <sodipodi:namedview
     pagecolor="#ffffff"
     bordercolor="#666666"
     borderopacity="1"
     objecttolerance="10"
     gridtolerance="10"
     guidetolerance="10"
     inkscape:pageopacity="0"
     inkscape:pageshadow="2"
     inkscape:window-width="1282"
     inkscape:window-height="950"
     id="namedview8"
     showgrid="false"
     inkscape:zoom="13.01"
     inkscape:cx="17.285429"
     inkscape:cy="20.875"
     inkscape:window-x="0"
     inkscape:window-y="0"
     inkscape:window-maximized="0"
     inkscape:current-layer="svg1533" />
  <defs
     id="defs1536" />
  <g
     id="g3766"
     transform="matrix(0.67813222,0,0,1,5.3799977,-6.3836873e-7)">
    <path
       d="m 18.094743,26.426494 0,-25.60309924"
       style="fill:none;stroke:#d38d5f;stroke-width:1.48967123;stroke-linecap:round;stroke-linejoin:miter;stroke-miterlimit:4;stroke-opacity:1;stroke-dasharray:none"
       id="path12114"
       inkscape:connector-curvature="0" />
    <path
       d="m 5.7188869,24.234677 c -4.3937124,1.387325 -6.7348588,3.898714 -5.29472461,5.787954 1.53613801,2.015191 6.81472831,2.583912 11.78256171,1.269477 4.96782,-1.314444 7.752964,-4.016753 6.216826,-6.031937 -1.536151,-2.015191 -6.814728,-2.583912 -11.7825611,-1.269477 -0.3104855,0.08215 -0.6291741,0.151496 -0.922102,0.243983 z"
       style="fill:#d38d5f;fill-opacity:1;fill-rule:evenodd;stroke:none"
       id="path12112"
       inkscape:connector-curvature="0" />
    <path
       d="m 18.451834,0.30636119 c -0.702176,4.81188621 6.045012,6.53558191 9.362338,8.76620851 3.153187,2.1202563 4.305018,4.5658373 4.176205,6.8571573 -0.03434,0.611782 -0.306374,3.262638 -3.26365,5.920407 3.954552,-6.667738 0.272719,-9.344062 -3.324206,-11.473503 C 21.045988,7.7974905 17.805146,5.3667961 18.451834,0.30636119 z"
       style="fill:#d38d5f;fill-opacity:1;fill-rule:evenodd;stroke:none"
       id="path12116"
       inkscape:connector-curvature="0" />
  </g>
</svg>
