<?xml version="1.0" encoding="UTF-8" standalone="no"?>
<svg
   xmlns:dc="http://purl.org/dc/elements/1.1/"
   xmlns:cc="http://creativecommons.org/ns#"
   xmlns:rdf="http://www.w3.org/1999/02/22-rdf-syntax-ns#"
   xmlns:svg="http://www.w3.org/2000/svg"
   xmlns="http://www.w3.org/2000/svg"
   xmlns:sodipodi="http://sodipodi.sourceforge.net/DTD/sodipodi-0.dtd"
   xmlns:inkscape="http://www.inkscape.org/namespaces/inkscape"
   xml:space="preserve"
   version="1.0"
   id="layer1"
   width="32"
   height="32"
   viewBox="0 0 4.8 4.8"
   inkscape:version="0.48.5 r10040"
   sodipodi:docname="Speaker_Icon.svg"><defs
     id="defs12" /><sodipodi:namedview
     pagecolor="#ffffff"
     bordercolor="#666666"
     borderopacity="1"
     objecttolerance="10"
     gridtolerance="10"
     guidetolerance="10"
     inkscape:pageopacity="0"
     inkscape:pageshadow="2"
     inkscape:window-width="1263"
     inkscape:window-height="1016"
     id="namedview10"
     showgrid="false"
     inkscape:zoom="10.07348"
     inkscape:cx="18.240966"
     inkscape:cy="6.891721"
     inkscape:window-x="0"
     inkscape:window-y="0"
     inkscape:window-maximized="0"
     inkscape:current-layer="layer1" /><metadata
     id="metadata1"><rdf:RDF><cc:Work
         rdf:about=""><dc:format>image/svg+xml</dc:format><dc:type
           rdf:resource="http://purl.org/dc/dcmitype/StillImage" /></cc:Work></rdf:RDF></metadata><g
     id="g3761"
     transform="matrix(1.0301539,0,0,1.0174151,-0.06141368,-0.04400971)"><polygon
       transform="matrix(0.06667457,0,0,0.08836699,-0.14853573,-0.97587876)"
       id="polygon1"
       points="22.235,28.606 6,28.606 6,47.699 21.989,47.699 39.389,62.75 39.389,13.769 39.389,13.769 "
       style="fill:#a56b00;fill-opacity:1;stroke:#111111;stroke-width:5;stroke-linejoin:round" /><path
       id="path1"
       d="M 3.060378,3.3567548 C 3.1889932,3.0831706 3.2645355,2.7612496 3.2645355,2.4153812 c 0,-0.3515239 -0.077609,-0.6781283 -0.2098249,-0.9543635"
       style="fill:none;stroke:#aa8132;stroke-width:0.38379133;stroke-linecap:round;stroke-opacity:1"
       inkscape:connector-curvature="0" /><path
       id="path2"
       d="M 3.5240329,0.83891411 C 3.7703955,1.2795119 3.9163461,1.8248246 3.9163461,2.4153812 c 0,0.5850779 -0.143417,1.1256187 -0.3859124,1.5640074"
       style="fill:none;stroke:#e9bb00;stroke-width:0.38379133;stroke-linecap:round;stroke-opacity:1"
       inkscape:connector-curvature="0" /><path
       id="path8"
       d="M 3.965952,4.5568669 C 4.3171269,3.9678125 4.5272185,3.2242926 4.5272185,2.4154696 c 0,-0.8144786 -0.2128252,-1.56250513 -0.5680006,-2.15332683"
       style="fill:none;stroke:#ffca16;stroke-width:0.38379133;stroke-linecap:round;stroke-opacity:1"
       inkscape:connector-curvature="0" /></g></svg>